<?xml version="1.0" encoding="utf-8"?>
<!-- Generator: Adobe Illustrator 25.2.0, SVG Export Plug-In . SVG Version: 6.00 Build 0)  -->
<svg version="1.1" id="Layer_1" xmlns="http://www.w3.org/2000/svg" xmlns:xlink="http://www.w3.org/1999/xlink" x="0px" y="0px"
	 viewBox="0 0 300 300" style="enable-background:new 0 0 300 300;" xml:space="preserve">
<style type="text/css">
	.st0{fill-rule:evenodd;clip-rule:evenodd;fill:#FFFFFF;}
</style>
<g>
	<path class="st0" d="M9,249.8l99-99.8L9,51C-3,39-3,20.2,9,9C20.2-3,39-3,51,9l99,99l99.8-99c11.2-12,30-12,42,0
		c11.2,11.2,11.2,30,0,42L192,150l99.8,99.8c11.2,11.2,11.2,30,0,42c-12,11.2-30.8,11.2-42,0L150,192l-99,99.8
		c-12,11.2-30.8,11.2-42,0C-3,279.8-3,261,9,249.8z"/>
</g>
</svg>
